<svg xmlns="http://www.w3.org/2000/svg" xmlns:xlink="http://www.w3.org/1999/xlink" width="500" zoomAndPan="magnify" viewBox="0 0 375 374.999991" height="500" preserveAspectRatio="xMidYMid meet" version="1.0"><defs><g/></defs><g fill="#000000" fill-opacity="1"><g transform="translate(36.642687, 295.078898)"><g><path d="M 9.515625 -244.359375 C 9.515625 -246.617188 10.25 -248.484375 11.71875 -249.953125 C 13.195312 -251.429688 15.296875 -252.171875 18.015625 -252.171875 L 221.25 -252.171875 C 223.96875 -252.171875 226.0625 -251.429688 227.53125 -249.953125 C 229.007812 -248.484375 229.75 -246.617188 229.75 -244.359375 L 229.75 -203.921875 C 229.75 -199.609375 227.253906 -197.453125 222.265625 -197.453125 L 162.109375 -197.453125 C 159.390625 -197.453125 158.03125 -196.320312 158.03125 -194.0625 L 158.03125 -7.484375 C 158.03125 -4.984375 157.460938 -3.109375 156.328125 -1.859375 C 155.203125 -0.617188 153.617188 0 151.578125 0 L 87 0 C 82.925781 0 80.890625 -2.265625 80.890625 -6.796875 L 80.890625 -192.703125 C 80.890625 -195.867188 79.640625 -197.453125 77.140625 -197.453125 L 17.328125 -197.453125 C 12.117188 -197.453125 9.515625 -199.609375 9.515625 -203.921875 Z M 9.515625 -244.359375 "/></g></g></g><g fill="#00bf63" fill-opacity="1"><g transform="translate(127.151167, 332.63467)"><g><path d="M 12.859375 0 C 11.265625 0 9.96875 -0.546875 8.96875 -1.640625 C 7.976562 -2.742188 7.484375 -4.289062 7.484375 -6.28125 C 7.484375 -7.675781 7.78125 -9.269531 8.375 -11.0625 L 80.78125 -215.109375 C 81.78125 -217.703125 82.875 -219.5 84.0625 -220.5 C 85.257812 -221.5 87.15625 -222 89.75 -222 L 148.703125 -222 C 151.085938 -222 153.226562 -221.25 155.125 -219.75 C 157.019531 -218.257812 158.46875 -216.316406 159.46875 -213.921875 L 231.265625 -10.171875 C 231.671875 -8.578125 231.875 -7.378906 231.875 -6.578125 C 231.875 -4.785156 231.472656 -3.238281 230.671875 -1.9375 C 229.878906 -0.644531 228.679688 0 227.078125 0 L 168.4375 0 C 165.050781 0 162.859375 -1.695312 161.859375 -5.09375 L 150.1875 -39.5 C 149.59375 -40.894531 149.046875 -41.835938 148.546875 -42.328125 C 148.046875 -42.828125 147.097656 -43.078125 145.703125 -43.078125 L 82.28125 -43.078125 C 79.882812 -43.078125 78.382812 -41.984375 77.78125 -39.796875 L 65.515625 -4.484375 C 64.328125 -1.492188 61.9375 0 58.34375 0 Z M 130.75 -93.9375 C 132.9375 -93.9375 134.03125 -94.9375 134.03125 -96.9375 C 134.03125 -97.332031 133.832031 -98.328125 133.4375 -99.921875 L 115.484375 -151.09375 C 115.085938 -152.082031 114.488281 -152.578125 113.6875 -152.578125 C 112.894531 -152.578125 112.296875 -152.082031 111.890625 -151.09375 L 93.640625 -100.234375 C 93.242188 -99.429688 93.046875 -98.429688 93.046875 -97.234375 C 93.046875 -95.035156 94.242188 -93.9375 96.640625 -93.9375 Z M 130.75 -93.9375 "/></g></g></g><path stroke-linecap="butt" transform="matrix(1.920199, 0, 0, 1.920199, 40.712188, 77.248142)" fill="none" stroke-linejoin="miter" d="M 51.711099 132.999033 C 50.87297 132.999033 50.189447 132.720334 49.656462 132.162938 C 49.149923 131.579096 48.895636 130.767412 48.895636 129.727888 C 48.895636 128.993508 49.060414 128.155379 49.38997 127.217569 L 87.08747 20.974537 C 87.594009 19.629869 88.165645 18.704265 88.798311 18.195692 C 89.43301 17.664741 90.421677 17.398249 91.766345 17.398249 L 122.46384 17.398249 C 123.706794 17.398249 124.821587 17.790867 125.812288 18.576105 C 126.800955 19.336931 127.549575 20.339838 128.056114 21.582791 L 165.44847 127.711903 C 165.651899 128.550032 165.753614 129.170492 165.753614 129.57735 C 165.753614 130.51516 165.550184 131.326843 165.14536 132.010366 C 164.738501 132.669477 164.118041 132.999033 163.279912 132.999033 L 132.73499 132.999033 C 130.959051 132.999033 129.817812 132.112081 129.311273 130.338176 L 123.224666 112.420116 C 122.921556 111.710147 122.628618 111.22802 122.34992 110.975767 C 122.095633 110.697069 121.61554 110.556703 120.903537 110.556703 L 87.848295 110.556703 C 86.605342 110.556703 85.83231 111.126305 85.527166 112.267544 L 79.137449 130.679938 C 78.502749 132.226001 77.259796 132.999033 75.408588 132.999033 Z M 113.106088 84.080368 C 114.247327 84.080368 114.818964 83.561623 114.818964 82.522099 C 114.818964 82.318669 114.717249 81.79789 114.51382 80.961795 L 105.156068 54.334923 C 104.952638 53.801938 104.635289 53.535445 104.206053 53.535445 C 103.799194 53.535445 103.496084 53.801938 103.292655 54.334923 L 93.782331 80.809223 C 93.578901 81.216082 93.477187 81.734827 93.477187 82.369527 C 93.477187 83.510765 94.099681 84.080368 95.342634 84.080368 Z M 113.106088 84.080368 " stroke="#ffffff" stroke-width="1.071242" stroke-opacity="1" stroke-miterlimit="4"/></svg>